<?xml version="1.0" ?><!DOCTYPE svg  PUBLIC '-//W3C//DTD SVG 1.1//EN'  'http://www.w3.org/Graphics/SVG/1.1/DTD/svg11.dtd'><svg enable-background="new 0 0 128 128" id="Слой_1" version="1.1" viewBox="0 0 128 128" xml:space="preserve" xmlns="http://www.w3.org/2000/svg" xmlns:xlink="http://www.w3.org/1999/xlink"><g><path d="M109.712,103.753l-9.506-9.64c-0.828-0.837-2.279-0.847-3.118-0.021l-3.004,2.963   c-0.419,0.413-0.652,0.965-0.656,1.554c-0.004,0.59,0.222,1.146,0.644,1.573l9.622,9.528c0.195,0.192,0.449,0.289,0.704,0.289   c0.254,0,0.508-0.096,0.702-0.288l4.604-4.545C110.096,104.778,110.1,104.146,109.712,103.753z M104.398,107.594l-8.911-8.825   c-0.05-0.05-0.06-0.106-0.06-0.146c0-0.038,0.011-0.095,0.061-0.144l3.004-2.963c0.05-0.049,0.105-0.059,0.144-0.059   c0.04,0,0.097,0.011,0.146,0.061l8.804,8.927L104.398,107.594z" fill="#323638"/><path d="M79.959,58c-11.85,0-21.49,9.641-21.49,21.49s9.641,21.49,21.49,21.49s21.49-9.641,21.49-21.49   S91.809,58,79.959,58z M79.959,98.98c-10.747,0-19.49-8.743-19.49-19.49S69.212,60,79.959,60s19.49,8.743,19.49,19.49   S90.706,98.98,79.959,98.98z" fill="#323638"/><path d="M76.559,106.159c0.511-0.743,0.987-1.505,1.47-2.262c-0.734-0.058-1.46-0.146-2.175-0.268   c-0.716,1.093-1.457,2.172-2.234,3.233c-0.016,0.021-0.018,0.047-0.032,0.069c-2.775,0.621-5.646,0.976-8.589,1.043V98.86   c-0.698-0.54-1.365-1.117-2-1.728v10.842c-2.428-0.055-4.807-0.304-7.124-0.738c-0.028-0.059-0.042-0.121-0.082-0.176   c-3.662-4.962-6.644-10.289-8.934-15.877c3.522-0.836,7.113-1.386,10.752-1.694c-0.287-0.639-0.548-1.292-0.78-1.958   c-3.627,0.338-7.202,0.93-10.715,1.778C43.204,81.6,41.615,73.415,41.412,65l18.82,0c0.512-0.695,1.057-1.364,1.638-2l-20.49,0   c0.018-8.221,1.382-16.266,3.999-23.887c5.719,1.442,11.608,2.201,17.622,2.277v20.457c0.635-0.611,1.302-1.188,2-1.728V41.391   c6.424-0.081,12.705-0.947,18.789-2.586c1.952,5.604,3.213,11.441,3.769,17.408c0.707,0.231,1.401,0.492,2.079,0.784   c-0.517-6.427-1.833-12.714-3.922-18.739c3.613-1.078,7.155-2.429,10.611-4.056c7.031,7.62,11.415,17.715,11.663,28.799l-9.939,0   c0.581,0.636,1.126,1.305,1.638,2h8.301c-0.131,5.836-1.418,11.393-3.626,16.463c-0.219,2.736-0.887,5.347-1.935,7.758   C107.208,81.97,110,73.302,110,64.001c0-25.273-20.561-45.908-45.833-45.999C64.166,18.002,64.001,18,64,18   c-9.519,0-18.653,2.883-26.415,8.336C25.322,34.952,18,49.032,18,64c0,25.364,20.636,46,46,46l0.167-0.002   c9.725-0.035,18.746-3.12,26.172-8.333c-2.398,1.127-5.006,1.878-7.75,2.172C80.648,104.748,78.641,105.537,76.559,106.159z    M94.842,32.667c-3.203,1.472-6.479,2.709-9.819,3.699c-1.846-4.896-4.199-9.611-7.052-14.073   C84.373,24.448,90.128,28.027,94.842,32.667z M65,20.026c3.436,0.078,6.779,0.539,9.98,1.366   c3.338,4.871,6.044,10.075,8.109,15.511C77.229,38.466,71.184,39.296,65,39.377V20.026z M54.516,21.03   c2.768-0.607,5.605-0.947,8.484-1.011v19.358c-5.778-0.075-11.433-0.809-16.93-2.179c2.117-5.648,4.924-11.05,8.412-16.09   C54.499,21.084,54.501,21.055,54.516,21.03z M38.735,27.973c3.975-2.793,8.329-4.873,12.911-6.21   c-3.075,4.721-5.59,9.727-7.526,14.939c-3.744-1.044-7.407-2.399-10.982-4.043C34.86,30.96,36.724,29.386,38.735,27.973z    M31.661,34.195c3.829,1.803,7.761,3.272,11.781,4.401C40.783,46.386,39.397,54.603,39.379,63l-19.368,0   C20.257,52.226,24.476,42.004,31.661,34.195z M20.011,65l19.401,0c0.201,8.581,1.802,16.931,4.748,24.802   c-4.133,1.117-8.178,2.582-12.112,4.407C24.8,86.547,20.265,76.294,20.011,65z M33.56,95.731c3.69-1.669,7.475-3.022,11.343-4.054   c2.119,5.228,4.835,10.229,8.122,14.935C45.6,104.697,38.931,100.886,33.56,95.731z" fill="#323638"/></g></svg>